P2
5 14
15
0 0 0 0 0 0 3 3 3 3 0 3 0 0 0 0 3 3 3 0 0 3 0 0 0 0 3 0 0 0 0 0 0 0 0 0 0 0 0 0 0 3 3 3 3 0 3 0 0 0 0 3 3 3 0 0 3 0 0 0 0 3 0 0 0 0 0 0 0 0 